PathFileType	4	(X/Y/Z)	pose_F01_0-95.trc
DataRate	CameraRate	NumFrames	NumMarkers	Units	OrigDataRate	OrigDataStartFrame	OrigNumFrames
30	30	14	21	m	30	31	95
Frame#	Time	CHip			RHip			RKnee			RAnkle			RBigToe			RSmallToe			RHeel			LHip			LKnee			LAnkle			LBigToe			LSmallToe			LHeel			Neck			Nose			RShoulder			RElbow			RWrist			LShoulder			LElbow			LWrist			
		X1	Y1	Z1	X2	Y2	Z2	X3	Y3	Z3	X4	Y4	Z4	X5	Y5	Z5	X6	Y6	Z6	X7	Y7	Z7	X8	Y8	Z8	X9	Y9	Z9	X10	Y10	Z10	X11	Y11	Z11	X12	Y12	Z12	X13	Y13	Z13	X14	Y14	Z14	X15	Y15	Z15	X16	Y16	Z16	X17	Y17	Z17	X18	Y18	Z18	X19	Y19	Z19	X20	Y20	Z20	X21	Y21	Z21	
31	1.0333333333333334	-0.2639537139692656	1.844020054493353	-0.5295643774644863	-0.2801800710957525	1.8427754008897903	-0.4681327668998281	-0.25480887769832206	1.7071037444395407	-0.556459190312462													-0.24870588966604001	1.8453374149311839	-0.5889174681352015	-0.24022087952826213	1.701208272983174	-0.581064922618798													-0.2620408622982067	2.0076002679940355	-0.5677382833937625	-0.25296434493265285	2.057926923350554	-0.5164166346135384	-0.28348067891282175	2.0064639960367554	-0.48986756791202407	-0.2936942417237362	1.9459014803105938	-0.3863261594022355	-0.26604981302847136	2.0030141905064043	-0.46847965110862416	-0.23932884496658485	2.009428229892335	-0.6486489452940005	-1.4648752259124833	1.8698664405871293	0.7120815712192597	-0.23670705876472908	2.011252891026984	-0.5487679676223232
32	1.0666666666666667	-0.2633544473168207	1.8388078738773976	-0.5463816284821362	-0.2800034593375231	1.8363766310686829	-0.4847695205296952	-0.25480887769832206	1.7071037444395407	-0.556459190312462													-0.24279401025476594	1.8415369130434036	-0.6071377154281775	-0.23632664928619398	1.7014994414826963	-0.5949345375963451													-0.25974906470277365	2.0049671522539394	-0.5859735645372464	-0.2528086416987318	2.0587117627375755	-0.5333607590524592	-0.28173395976703625	2.0005773520542958	-0.5079108790991651	-0.2912421544724997	1.9471615475354527	-0.4109146033677721	-0.26613138476008413	2.0035825096949282	-0.4855991422039851	-0.2348997551067998	2.007291094435003	-0.66126845128856	-1.450568185699432	1.8682507134862354	0.6901393837191881	-0.23855645752782184	2.0121030203566437	-0.5551043195973314
33	1.1	-0.2573149785531817	1.8410770763975375	-0.5708333168514742	-0.2742071763215178	1.8390321040466189	-0.5091493696922618	-0.25480887769832206	1.7071037444395407	-0.556459190312462													-0.24005780527829113	1.841716577379227	-0.6352624248247118	-0.23243241904412584	1.7017906099822184	-0.608804152573892													-0.25516087023861705	2.005037741434235	-0.6072833022599899	-0.2516915905845606	2.059069400733363	-0.5470297226601082	-0.27676861069718706	2.002822048848606	-0.5348889384417009	-0.28859843993704776	1.9464034028576516	-0.42679495078134794	-0.26736270248730964	2.004564744281025	-0.4977729481509713	-0.22982447716586377	2.0062348257502043	-0.6821185611847451	-1.4282178182038199	1.8680421466745587	0.6548413674964038	-0.2343682258806547	2.007361779735731	-0.5667680756234738
34	1.1333333333333333	-0.2501331006250854	1.8411014848558969	-0.6036655148081485	-0.2655050989129639	1.8382094503914146	-0.5441283197569103	-0.25480887769832206	1.7071037444395407	-0.556459190312462													-0.2315174568233045	1.8449918628514324	-0.6652396375041656	-0.22853818880205767	1.7020817784817406	-0.622673767551439													-0.2526483844018901	2.003396969169588	-0.626229229235746	-0.24858538506391498	2.057223706403121	-0.5625047452089365	-0.2746827611536122	1.999568541785389	-0.5531931941738832	-0.28946211881636064	1.9404186117301054	-0.45193277207782323	-0.2629380681661772	1.9902610242181242	-0.5141543683869292	-0.22459443214962305	2.0071045618554035	-0.7036151071337763	-1.410669814054705	1.868122149759726	0.6308978283892596	-0.2350632808219703	2.0097609781197066	-0.5878414811909208
35	1.1666666666666667	-0.24603223705140215	1.833563850048164	-0.6281570122538228	-0.2609751016721958	1.8317042781535051	-0.5741153852514703	-0.25480887769832206	1.7071037444395407	-0.556459190312462													-0.2258323443106229	1.8350548815726748	-0.6887047647474092	-0.22464395855998953	1.7023729469812627	-0.6365433825289859													-0.2435305459945653	2.0036230970235214	-0.6515036302277182	-0.24526559311094046	2.0526161981657913	-0.5861083617333861	-0.2682047183136842	1.9985063262142964	-0.5848126679567166	-0.2828912906651293	1.935272018756836	-0.4801698042916292	-0.25064666672335134	2.000979383871066	-0.5293025243589149	-0.21816257839393635	2.007316398746115	-0.7214611652867107	-1.376218041194504	1.862976246106079	0.5767395525139257	-0.2223526459177463	2.007510654636276	-0.5914633368399954
36	1.2	-0.238463465422347	1.8251804442522608	-0.6562966290109588	-0.2570035418892948	1.8264004580570632	-0.5951198512459496	-0.25480887769832206	1.7071037444395407	-0.556459190312462													-0.22014723179794132	1.8251179002939173	-0.7121698919906528	-0.2207497283179214	1.7026641154807851	-0.6504129975065329													-0.23279491407045802	1.9961589785801954	-0.6901098345079885	-0.2326089505573462	2.050644715903931	-0.6076105642027012	-0.26032087090475675	1.9897487097635584	-0.6206351841350699	-0.2797909968076331	1.9267632100373895	-0.5351768568374733	-0.28175132013679116	1.95878552039591	-0.47951444234795937	-0.2039750277043784	2.0011955783103157	-0.7514927055674673	-1.2618498551478567	1.8571943710931342	0.3999419742820732	-0.19133638413714954	1.983058820567425	-0.6220255518868331
37	1.2333333333333334	-0.2372352084175171	1.830326929769768	-0.6623405296331966	-0.2547044506948856	1.8302416432899191	-0.6064383219865073	-0.25480887769832206	1.7071037444395407	-0.556459190312462													-0.21968753859396112	1.8292249686881699	-0.7210516170405984	-0.21685549807585325	1.7029552839803073	-0.6642826124840798													-0.23350505390167928	1.998514406423795	-0.7023151278065786	-0.23293747210178758	2.0551679538211545	-0.6282870188248143	-0.2618469874977355	1.9950541668374553	-0.6359734759560292	-0.29346392240844266	1.931421691573523	-0.5541426667613576	-0.3144441888131413	1.9307621700904942	-0.44260148217569134	-0.20526139754479186	2.003179591190619	-0.7665174392158786	-0.14364869187198945	1.9550162131895081	-0.8090582264668875	-1.4352139592012665	1.8678340153131532	0.6871870633438016
38	1.2666666666666666	-0.23789954098214325	1.844278933070609	-0.6668509715075746	-0.2574808742569599	1.84411201050643	-0.6174004877673621	-0.25480887769832206	1.7071037444395407	-0.556459190312462													-0.2198286353308034	1.8457317915965394	-0.7141473196501963	-0.21952776775414176	1.70858603902332	-0.6789183447742991													-0.2358073265730278	2.0055740421203243	-0.7120724632639756	-0.2333357049658155	2.063025788427155	-0.6407773361771432	-0.2646842529101249	2.0030512386798685	-0.6465851158389981	-0.2915887867166041	1.9302779995069197	-0.5619262307586862	-0.3257647836292888	1.914344443299952	-0.4708374917593672	-0.20428929389064868	2.0090219516131276	-0.7751132237050274	-1.128932838276385	1.8512425842152398	0.18505416058553958	-0.0885433366194571	1.9405158948302912	-0.768398532933794
39	1.3	-0.24095089978894244	1.846043336440678	-0.679906806171707	-0.2581922680789734	1.8433571797925434	-0.6263516133671888	-0.25480887769832206	1.7071037444395407	-0.556459190312462													-0.22163427107949457	1.8447783759822194	-0.7238527077647133	-0.21868771141890933	1.7107158633468882	-0.6852505167952928													-0.23376690518879906	2.0088529749629735	-0.7058557788497296	-0.22987777071099125	2.068821033196628	-0.648849810632954	-0.2642894426023076	2.0072139625326475	-0.6464367066760894	-0.2897136510247656	1.9291343074403167	-0.5697097947560149	-0.32198941444418094	1.9054617745431532	-0.480356435324411	-0.20171123819802664	2.0101784350084655	-0.7658728017700495	-1.0289434219777067	1.8454347504655544	0.01965712478700467	-0.42270744460349097	1.8789919800148076	-0.5669862892689289
40	1.3333333333333333	-0.24134917526111963	1.8453047920853036	-0.6857229978493362	-0.2589036619009868	1.8426023490786572	-0.6353027389670155	-0.25480887769832206	1.7071037444395407	-0.556459190312462													-0.22200810826884262	1.8445399564975147	-0.7296895596023527	-0.21784765508367687	1.7128456876704563	-0.6915826888162865													-0.23471181367309565	2.0078829493940655	-0.7090113433121991	-0.23076555201463575	2.0702909564813665	-0.6523698471246436	-0.2623912260004984	2.0051220166189965	-0.6399815950713487	-0.28783851533292704	1.9279906153737134	-0.5774933587533435	-0.31821404525907304	1.8965791057863548	-0.4898753788894549	-0.204373231733547	2.010539959951411	-0.7754558630205317	-0.16380411205832768	1.9606005099944777	-0.8677910292854919	-0.7568715525875248	1.8174680651993242	-0.36557404560406387
41	1.3666666666666667	-0.24174745073329681	1.844566247729929	-0.6915391895269654	-0.25961505572300025	1.8418475183647707	-0.6442538645668422	-0.25480887769832206	1.7071037444395407	-0.556459190312462													-0.22238194545819068	1.84430153701281	-0.7355264114399921	-0.21700759874844444	1.7149755119940244	-0.6979148608372802													-0.23665318452843007	2.005925045926078	-0.715286576549788	-0.2305000779964906	2.070270631605784	-0.6606961616719871	-0.26445264303891836	2.003375708798346	-0.6461853121779969	-0.28596337964108853	1.9268469233071104	-0.5852769227506722	-0.31443867607396514	1.8876964370295561	-0.4993943224544988	-0.20677795093681883	2.0088493239607454	-0.7841768186706097	-0.9993565209442912	1.8510003877411008	-0.06186278904021483	-0.7488876759374826	1.8047569761602156	-0.39797882497046344
42	1.4	-0.24159455309021163	1.8429378562410081	-0.6999715145851013	-0.2593145220170877	1.8415855147398328	-0.652736197337109	-0.25480887769832206	1.7071037444395407	-0.556459190312462													-0.22371921273678194	1.846070070175035	-0.7503588576995842	-0.216167542413212	1.7171053363175925	-0.7042470328582737													-0.23646122574813508	2.0030563986869248	-0.7236495927240143	-0.23026384546790254	2.0660910227875076	-0.668321483174845	-0.2635714523601446	2.0000070017504132	-0.6516282006234325	-0.28408824394925	1.9257032312405071	-0.5930604867480008	-0.3106633068888573	1.8788137682727575	-0.5089132660195427	-0.20646965187773292	2.006246110638106	-0.7927153951666346	-1.0065040125975255	1.8431804590392415	-0.06067188759724317	-0.7781423626231283	1.7927107757374017	-0.3580035100162575
43	1.4333333333333333	-0.24115078579267113	1.8398446096099303	-0.7082920698309633	-0.25706708431151987	1.8370582609649038	-0.6548570713455185	-0.25480887769832206	1.7071037444395407	-0.556459190312462													-0.22470422104627907	1.842374352087166	-0.7648574157610348	-0.21532748607797958	1.7192351606411607	-0.7105792048792674													-0.23604137378462065	1.9998142516732296	-0.7313872900414414	-0.23014829593903224	2.061797705725985	-0.6765860990943136	-0.26333382520518905	1.9967557370855051	-0.6592239365063562	-0.28221310825741147	1.924559539173904	-0.6008440507453295	-0.30688793770374945	1.869931099515959	-0.5184322095845865	-0.2066954376280875	2.003957717813376	-0.8037929032414828	-1.004754169697271	1.831567526439206	-0.06375742251572275	-0.7839949482911307	1.7710936851416361	-0.3511093374192904
44	1.4666666666666666	-0.2402841626564567	1.8395369618408768	-0.7169664366454699	-0.256616513887295	1.836906364614203	-0.663297779009751	-0.25480887769832206	1.7071037444395407	-0.556459190312462													-0.22123714331596323	1.8413678833855613	-0.7724149785897415	-0.21448742974274712	1.7213649849647288	-0.7169113769002611													-0.23443610187649244	1.9976731068232645	-0.7361663419422919	-0.22966433481898993	2.063720586394236	-0.6847184553570833	-0.2609089550991637	1.9928030333812232	-0.660651202163691	-0.2803379725655729	1.9234158471073008	-0.6086276147426581	-0.30311256851864155	1.8610484307591604	-0.5279511531496304	-0.2038235296599626	2.0017710917570217	-0.8139948190231381	-1.0273759745487883	1.8281092725822068	-0.03730179862030116	-0.8327734862572325	1.762340145751393	-0.2878830758634897
